<svg width="12" height="12" viewBox="0 0 12 12" fill="none" xmlns="http://www.w3.org/2000/svg">
<path d="M6.53016 10.7196L2.56035 6.74985L11.25 6.74985C11.664 6.74985 12 6.41386 12 5.99986C12 5.58586 11.664 5.24987 11.25 5.24987L2.56035 5.24986L6.53017 1.28015C6.82342 0.986899 6.82342 0.512152 6.53017 0.219655C6.23691 -0.0728431 5.76215 -0.0735937 5.46965 0.219654L0.219566 5.46961C0.150565 5.53861 0.0950647 5.62111 0.0568138 5.71261C-0.0189375 5.89636 -0.0189375 6.10336 0.0568137 6.28711C0.0935645 6.37561 0.147564 6.45811 0.219566 6.5301L5.46965 11.7801C5.7629 12.0733 6.23766 12.0733 6.53016 11.7801C6.82267 11.4868 6.82342 11.0121 6.53016 10.7196Z" fill="#F2F2F2"/>
</svg>
