<svg width="24" height="29" viewBox="0 0 24 29" fill="none" xmlns="http://www.w3.org/2000/svg">
<path d="M12.1247 7.328C12.7497 6.556 13.1247 5.572 13.1247 4.5C13.1247 2.016 11.1087 0 8.62474 0C6.14074 0 4.12474 2.016 4.12474 4.5C4.12474 5.572 4.49974 6.556 5.12474 7.328V4.49C5.12474 2.562 6.69074 0.999 8.62474 0.999C10.5527 0.999 12.1247 2.562 12.1247 4.49V7.328ZM14.6217 28C18.7657 28 22.1217 24.416 22.1217 20.5V14.503C22.1217 13.675 21.4557 13 20.6217 13C19.7937 13 19.1217 13.672 19.1217 14.503V15H18.1217V12.506C18.1217 11.675 17.4557 11 16.6217 11C15.7937 11 15.1217 11.672 15.1217 12.506V14H14.1217V11.506C14.1217 10.675 13.4557 10 12.6217 10C11.7937 10 11.1217 10.672 11.1217 11.506V15H10.1217V4.506C10.1217 3.675 9.45574 3 8.62174 3C7.79374 3 7.12174 3.666 7.12174 4.506V15.8C5.06274 13.6 2.35274 11.178 1.24374 12.297C0.156738 13.391 2.95974 16.403 6.86874 22.985C8.63474 25.951 10.8657 28 14.6217 28ZM23.1247 20.5C23.1247 25.194 19.3187 29 14.6247 29C11.5117 29 8.22774 27.547 5.96574 23.428C2.70274 17.481 -1.47226 13.584 0.515738 11.597C1.93774 10.175 4.16874 11.541 6.12474 13.369V4.51C6.12474 3.116 7.24374 2.001 8.62474 2.001C10.0157 2.001 11.1247 3.123 11.1247 4.51V9.501C11.5437 9.188 12.0627 9.004 12.6247 9.004C13.7057 9.004 14.6187 9.682 14.9717 10.632C15.4127 10.241 15.9907 10.004 16.6247 10.004C18.0157 10.004 19.1247 11.123 19.1247 12.501V12.513C19.5437 12.2 20.0627 12.016 20.6247 12.016C22.0157 12.016 23.1247 13.135 23.1247 14.516V20.5Z" fill="#F2F2F2"/>
</svg>
