<svg width="104" height="104" viewBox="0 0 104 104" fill="none" xmlns="http://www.w3.org/2000/svg">
<path d="M45.5477 14.9036H40.7091C38.9273 14.9036 37.4833 16.3487 37.4833 18.1293V19.4841C37.4833 20.7873 36.6977 21.9647 35.4917 22.4647L27.2114 25.8937C26.0061 26.3937 24.618 26.1179 23.6958 25.1937L22.7381 24.2373C21.4781 22.9777 19.436 22.9777 18.176 24.2373L11.3332 31.0791C10.0739 32.3404 10.0739 34.3823 11.3332 35.642L13.0532 37.3613C13.5145 37.8226 13.6524 38.5161 13.4029 39.1193L9.56037 48.395C9.0607 49.6014 7.88443 50.3869 6.58025 50.3869H5.22576C3.44401 50.3869 2 51.832 2 53.6127V63.2899C2 65.0706 3.44401 66.5157 5.22576 66.5157H6.58025C7.88443 66.5157 9.0607 67.3012 9.56037 68.5076L12.9903 76.7881C13.4892 77.9929 13.2139 79.3816 12.291 80.3026L11.3332 81.2606C10.0739 82.5203 10.0739 84.5622 11.3332 85.8235L18.176 92.6653C19.436 93.9249 21.4781 93.9249 22.7381 92.6653L23.6958 91.7088C24.618 90.7847 26.0061 90.5089 27.2114 91.0089L35.4917 94.4394C36.6977 94.9378 37.4833 96.1153 37.4833 97.4185V98.7733C37.4833 100.554 38.9273 101.999 40.7091 101.999H47.1606" stroke="#212121" stroke-width="3" stroke-miterlimit="10" stroke-linecap="square" stroke-linejoin="round"/>
<path d="M68.1309 1.99983V5.22559" stroke="#212121" stroke-width="3" stroke-miterlimit="10" stroke-linecap="round" stroke-linejoin="round"/>
<path d="M95.4121 16.0908L97.7846 13.8103" stroke="#212121" stroke-width="3" stroke-miterlimit="10" stroke-linecap="round" stroke-linejoin="round"/>
<path d="M82.8926 8.05029L84.1764 5.0697" stroke="#212121" stroke-width="3" stroke-miterlimit="10" stroke-linecap="round" stroke-linejoin="round"/>
<path d="M53.3673 8.05029L52.084 5.0697" stroke="#212121" stroke-width="3" stroke-miterlimit="10" stroke-linecap="round" stroke-linejoin="round"/>
<path d="M55.2264 81.0324C55.2264 81.0324 53.9587 74.3454 51.4065 70.9906C45.5492 63.2907 39.0977 53.8489 39.0977 43.9362C39.0977 27.7993 51.9918 14.9043 68.1295 14.9043C84.2663 14.9043 97.1613 27.7993 97.1613 43.9362L102 58.4521H93.9355V68.1293C93.9355 71.6922 91.0469 74.5809 87.484 74.5809H84.8099C82.5906 74.5809 80.6551 76.0921 80.1164 78.2453C79.6535 80.0969 79.4196 81.9969 79.4196 83.9049V87.4839H55.2264" stroke="#212121" stroke-width="3" stroke-miterlimit="10" stroke-linecap="round" stroke-linejoin="round"/>
<path d="M63.2894 71.355C63.2894 61.6777 63.2894 52.0004 56.8379 45.5489H79.4182C72.9667 52.0004 72.9667 61.6777 72.9667 71.355" stroke="#212121" stroke-width="3" stroke-miterlimit="10" stroke-linecap="round" stroke-linejoin="round"/>
<path d="M55.2246 93.9346C55.2246 98.3878 58.8358 101.999 63.289 101.999H71.3534C75.8066 101.999 79.4178 98.3878 79.4178 93.9346" stroke="#212121" stroke-width="3" stroke-miterlimit="10" stroke-linecap="square" stroke-linejoin="round"/>
<path d="M28.6333 45.5489C26.0822 49.2069 24.5859 53.6536 24.5859 58.4519C24.5859 70.9227 34.6955 81.0322 47.1662 81.0322H55.2306" stroke="#212121" stroke-width="3" stroke-miterlimit="10" stroke-linecap="round" stroke-linejoin="round"/>
</svg>
