<svg width="100" height="100" viewBox="0 0 100 100" fill="none" xmlns="http://www.w3.org/2000/svg">
<path d="M85.9369 57.813H65.6245V54.688H85.9369C90.501 54.688 95.2119 51.8521 96.8744 50.7458V49.2552C95.2119 48.1489 90.501 45.313 85.9369 45.313H18.7496C18.334 45.313 17.9371 45.1489 17.6449 44.8552L10.2903 37.5005H8.2137L12.1809 54.688H29.6871V57.813H10.9371C10.209 57.813 9.57775 57.3114 9.41368 56.6021L4.7262 36.2896C4.61995 35.8255 4.72931 35.3381 5.02775 34.9646C5.32306 34.5927 5.77307 34.3756 6.24963 34.3756H10.9371C11.3527 34.3756 11.7496 34.5396 12.0418 34.8334L19.3965 42.188H85.9369C92.6306 42.188 99.1025 46.9833 99.3744 47.188C99.7681 47.4833 99.9994 47.9458 99.9994 48.438V51.563C99.9994 52.0552 99.7681 52.5177 99.3744 52.813C99.1025 53.0177 92.6306 57.813 85.9369 57.813Z" fill="#212121"/>
<path d="M42.8346 42.1875H61.158L38.6581 29.6875H30.3346L42.8346 42.1875ZM67.1877 45.3125H42.1877C41.7721 45.3125 41.3752 45.1484 41.0831 44.8547L25.4581 29.2297C25.0112 28.7828 24.8769 28.111 25.119 27.5266C25.3597 26.9438 25.9315 26.5625 26.5628 26.5625H39.0628C39.3284 26.5625 39.5893 26.6297 39.8206 26.7594L67.9455 42.3843C68.5689 42.7297 68.8783 43.4531 68.7002 44.1422C68.522 44.8312 67.9002 45.3125 67.1877 45.3125Z" fill="#212121"/>
<path d="M30.3346 64.0625H38.6581L61.158 51.5625H42.8346L30.3346 64.0625ZM39.0628 67.1875H26.5628C25.9315 67.1875 25.3597 66.8063 25.119 66.2235C24.8769 65.6391 25.0112 64.9672 25.4581 64.5203L41.0831 48.8954C41.3752 48.6016 41.7721 48.4375 42.1877 48.4375H67.1877C67.9002 48.4375 68.522 48.9188 68.7002 49.6079C68.8783 50.297 68.5689 51.0204 67.9455 51.3657L39.8206 66.9906C39.5893 67.1203 39.3284 67.1875 39.0628 67.1875Z" fill="#212121"/>
<path d="M81.25 51.5625H78.125V48.4375H81.25V51.5625Z" fill="#212121"/>
<path d="M75 51.5625H71.875V48.4375H75V51.5625Z" fill="#212121"/>
<path d="M34.375 51.5625H31.25V48.4375H34.375V51.5625Z" fill="#212121"/>
<path d="M28.125 51.5625H25V48.4375H28.125V51.5625Z" fill="#212121"/>
<path d="M21.875 51.5625H18.75V48.4375H21.875V51.5625Z" fill="#212121"/>
<path d="M21.875 67.1875H2.375V64.0625H21.875V67.1875Z" fill="#212121"/>
<path d="M6.24998 67.1875H0V64.0625H6.24998V67.1875Z" fill="#212121"/>
<path d="M21.875 29.688H11.625V26.563H21.875V29.688Z" fill="#212121"/>
<path d="M12.5 29.688H0V26.563H12.5V29.688Z" fill="#212121"/>
<path d="M89.0623 35.9375H85.9373V34.375C85.9373 27.4828 80.3295 21.875 73.4374 21.875H68.7467L70.6249 19.3735C71.4436 18.286 71.8749 16.9907 71.8749 15.6251C71.8749 12.1782 69.0718 9.37507 65.6249 9.37507C64.2593 9.37507 62.9624 9.80636 61.8765 10.6235L60.6577 11.5407L59.7124 10.3438C55.9233 5.5548 51.0781 3.12509 45.3124 3.12509C35.8359 3.12509 28.125 10.836 28.125 20.3125H25C25 9.11257 34.1125 9.53674e-05 45.3124 9.53674e-05C51.5359 9.53674e-05 57.0218 2.52663 61.2593 7.32506C62.5968 6.61881 64.0811 6.25008 65.6249 6.25008C70.7952 6.25008 74.9999 10.4548 74.9999 15.6251C74.9999 16.7172 74.8155 17.7797 74.4561 18.7829C82.5983 19.3094 89.0623 26.1016 89.0623 34.375V35.9375Z" fill="#212121"/>
<path d="M51.4687 75.5293L48.5312 74.47C49.6562 71.3403 53.5781 64.0622 65.6249 64.0622C71.9734 64.0622 77.9186 66.5606 82.3639 71.095L80.1327 73.2824C76.2796 69.3512 71.1265 67.1871 65.6249 67.1871C55.9218 67.1871 52.5921 72.4137 51.4687 75.5293Z" fill="#212121"/>
<path d="M29.6875 93.75H26.5625C26.5625 85.1344 33.5719 78.125 42.1875 78.125C46.039 78.125 49.739 79.5391 52.6077 82.1063L50.5234 84.4344C48.2296 82.3813 45.2687 81.25 42.1875 81.25C35.2953 81.25 29.6875 86.8578 29.6875 93.75Z" fill="#212121"/>
<path d="M87.5 93.75V90.625C92.6703 90.625 96.8749 86.4203 96.8749 81.25C96.8749 76.0797 92.6703 71.8751 87.5 71.8751C82.3297 71.8751 78.125 76.0797 78.125 81.25H75C75 74.3579 80.6078 68.7501 87.5 68.7501C94.3921 68.7501 99.9999 74.3579 99.9999 81.25C99.9999 88.1422 94.3921 93.75 87.5 93.75Z" fill="#212121"/>
<path d="M87.4999 93.75H61.625V90.625H87.4999V93.75Z" fill="#212121"/>
<path d="M62.5 93.75H56.25V90.625H62.5V93.75Z" fill="#212121"/>
<path d="M15.625 100H9.375V96.875H15.625V100Z" fill="#212121"/>
<path d="M9.37498 100C4.20468 100 0 95.7953 0 90.625C0 85.8266 3.62186 81.8594 8.27654 81.3141C10.3953 76.4282 15.5015 73.4376 21.8749 73.4376C28.7999 73.4376 34.3749 78.5657 34.3749 82.8125H31.2499C31.2499 80.6172 27.3827 76.5626 21.8749 76.5626C16.4656 76.5626 12.2437 79.1469 10.8562 83.3063L10.5015 84.375H9.37498C5.92811 84.375 3.12499 87.1782 3.12499 90.625C3.12499 94.0719 5.92811 96.875 9.37498 96.875V100Z" fill="#212121"/>
</svg>
