<svg width="111" height="105" viewBox="0 0 111 105" fill="none" xmlns="http://www.w3.org/2000/svg">
<path d="M27.5508 11.291V1.99977H64.7158V11.291" stroke="#212121" stroke-width="3" stroke-miterlimit="10"/>
<path d="M55.4252 101.881H41.4883V83.2984H55.4252V101.881Z" stroke="#212121" stroke-width="3" stroke-miterlimit="10"/>
<path d="M32.1973 41.4883V32.197H41.4885V41.4883" stroke="#212121" stroke-width="3" stroke-miterlimit="10"/>
<path d="M32.1973 60.0703V50.7791H41.4885V60.0703" stroke="#212121" stroke-width="3" stroke-miterlimit="10"/>
<path d="M15.9369 101.881H2V29.8737H15.9369" stroke="#212121" stroke-width="3" stroke-miterlimit="10"/>
<path d="M6.64648 29.8745V20.5833H15.9377" stroke="#212121" stroke-width="3" stroke-miterlimit="10"/>
<path d="M80.9609 46.1338C80.9655 46.1338 80.9702 46.1338 80.9748 46.1338C80.9795 46.1338 80.9842 46.1338 80.9911 46.1338C86.106 46.1338 90.2591 50.0199 90.2661 55.4114C90.2754 60.8047 86.1315 64.7163 81.0166 64.7163C81.0027 64.7163 80.9888 64.7163 80.9748 64.7163C80.9609 64.7163 80.947 64.7163 80.9331 64.7163C75.8182 64.7163 71.6766 60.8047 71.6836 55.4114C71.6906 50.0199 75.8437 46.1338 80.9609 46.1338Z" stroke="#212121" stroke-width="3" stroke-miterlimit="10"/>
<path d="M80.9773 27.5512C96.3706 27.5512 108.851 39.2623 108.851 53.7081C108.86 59.959 107.871 64.2888 104.087 69.9706C100.305 75.6496 80.9773 102 80.9773 102C80.9773 102 61.6492 75.6496 57.8677 69.9706C54.0838 64.2888 53.0943 59.959 53.1036 53.7081C53.1036 39.2623 65.584 27.5512 80.9773 27.5512Z" stroke="#212121" stroke-width="3" stroke-miterlimit="10"/>
<path d="M71.6858 101.881H20.584V11.2912H71.6858V22.9052" stroke="#212121" stroke-width="3" stroke-miterlimit="10"/>
</svg>
