<svg width="94" height="102" viewBox="0 0 94 102" fill="none" xmlns="http://www.w3.org/2000/svg">
<path fill-rule="evenodd" clip-rule="evenodd" d="M23.6533 32.7843L18.4992 24.6906L31.0044 20.5614L28.2959 31.2514L23.6533 32.7843ZM31.2816 30.2656L33.9893 19.5758L42.2868 16.836L39.5798 27.5257L31.2816 30.2656ZM42.5646 26.5402L45.2723 15.8501L53.5792 13.1072L50.87 23.7979L42.5646 26.5402ZM53.856 22.812L56.5645 12.1215L64.8625 9.38151L62.1537 20.0723L53.856 22.812ZM65.139 19.0866L67.8486 8.39552L76.1522 5.65367L73.4443 16.3443L65.139 19.0866ZM76.4291 15.3588L79.137 4.6681L84.1861 3.00091L87.1029 11.8345L76.4291 15.3588ZM92.6724 34.7271H26.2273L89.1933 13.9373C89.8881 13.7075 90.2664 12.9579 90.0366 12.2623L86.2889 0.910472C86.1784 0.576362 85.9398 0.300593 85.626 0.142376C85.3104 -0.0158399 84.9471 -0.0441331 84.613 0.0672371L15.8512 22.7725H1.32584C0.593091 22.7725 0 23.3665 0 24.0984V48.0069V99.7782C0 100.511 0.593091 101.104 1.32584 101.104H92.6742C93.406 101.104 94 100.511 94 99.7782V96H91.3483V98.4524H2.65167V49.3328H91.3483V93.7H94V48.0069C94 47.9934 93.9998 47.9798 93.9994 47.9664L93.999 47.9557L93.9983 47.9386V36.053C93.9983 35.3202 93.4043 34.7271 92.6724 34.7271ZM18.1498 29.0791L15.8222 25.4242H2.65167V46.6808H15.8208L22.5899 36.0521L18.1498 29.0791ZM80.1073 46.6808H91.3466V37.3788H86.0304L80.1073 46.6808ZM82.8864 37.3788H74.1468L68.223 46.6808H76.9629L82.8864 37.3788ZM65.0778 46.6808L71.0026 37.3788H62.2606L56.3369 46.6808H65.0778ZM44.4476 46.6808H53.1924L59.1159 37.3788H50.3706L44.4476 46.6808ZM41.3032 46.6808L47.2267 37.3788H38.4842L32.5598 46.6808H41.3032ZM29.4161 46.6808L35.3403 37.3788H24.8899L18.9668 46.6808H29.4161ZM44.8023 89.68H12.6198V60.9066H44.8023V89.68ZM11.294 92.3316H46.1281L46.1322 92.3316L46.1362 92.3316H82.7064C83.4382 92.3316 84.0322 91.7377 84.0322 91.0058V83.1499V75.2926V67.4372V59.5803C84.0322 58.8475 83.4382 58.2544 82.7064 58.2544H46.1362C46.1235 58.2544 46.1108 58.2546 46.0981 58.255H11.294C10.5621 58.255 9.96817 58.8481 9.96817 59.5808V91.0058C9.96817 91.7377 10.5621 92.3316 11.294 92.3316ZM47.4621 84.4757H81.3805V89.68H47.4621V84.4757ZM81.3805 81.8239V76.6188H47.4621V81.8239H81.3805ZM47.4621 66.1114H81.3805V60.9061H47.4621V66.1114ZM81.3805 73.9667H47.4621V68.7633H81.3805V73.9667Z" fill="#212121"/>
</svg>
