<svg width="104" height="104" viewBox="0 0 104 104" fill="none" xmlns="http://www.w3.org/2000/svg">
<path d="M34.6055 23.7389V30.2605C34.6055 39.8692 42.3913 47.6519 52 47.6519C61.6087 47.6519 69.39 39.8692 69.39 30.2605V19.3912C69.39 9.78205 61.6087 1.99985 52 1.99985H38.9541C36.5508 1.99985 34.6055 3.94518 34.6055 6.34759V8.52144C34.6055 14.5243 39.4755 19.3912 45.4747 19.3912H62.8693" stroke="#212121" stroke-width="3" stroke-miterlimit="10"/>
<path d="M60.6917 93.3047H43.3047" stroke="#212121" stroke-width="3" stroke-miterlimit="10"/>
<path d="M38.9583 93.304H2V95.4781C2 99.0788 4.91648 102 8.51951 102H95.4799C99.0782 102 101.999 99.0788 101.999 95.4781V93.304H65.0412" stroke="#212121" stroke-width="3" stroke-miterlimit="10"/>
<path d="M28.0873 28.0864H12.8678C9.26739 28.0864 6.34766 31.0075 6.34766 34.6083V93.3042" stroke="#212121" stroke-width="3" stroke-miterlimit="10"/>
<path d="M6.34766 36.7822H28.0873" stroke="#212121" stroke-width="3" stroke-miterlimit="10"/>
<path d="M75.9131 28.0855H91.1339C94.7354 28.0855 97.6544 31.0068 97.6544 34.6074V93.3032" stroke="#212121" stroke-width="3" stroke-miterlimit="10"/>
<path d="M97.6544 36.7812H75.9131" stroke="#212121" stroke-width="3" stroke-miterlimit="10"/>
<path d="M15.043 86.7822V72.6683C15.043 66.7009 18.5299 61.2848 23.9647 58.8148L38.9561 51.9996V41.13" stroke="#212121" stroke-width="3" stroke-miterlimit="10"/>
<path d="M30.262 86.7817V80.2601L25.916 75.9124" stroke="#212121" stroke-width="3" stroke-miterlimit="10"/>
<path d="M73.7363 86.7827V80.261L78.0856 75.9131" stroke="#212121" stroke-width="3" stroke-miterlimit="10"/>
<path d="M38.957 51.9991L52.0015 62.8687" stroke="#212121" stroke-width="3" stroke-miterlimit="10"/>
<path d="M52.001 62.8685V80.2598" stroke="#212121" stroke-width="3" stroke-miterlimit="10"/>
<path d="M31.1328 55.5427L41.1309 71.5645L52.0013 62.869" stroke="#212121" stroke-width="3" stroke-miterlimit="10"/>
<path d="M88.9552 86.7827V72.6687C88.9552 66.701 85.4689 61.2854 80.0324 58.8153L65.04 52V41.1307" stroke="#212121" stroke-width="3" stroke-miterlimit="10"/>
<path d="M65.0452 51.9987L52.0039 62.8682" stroke="#212121" stroke-width="3" stroke-miterlimit="10"/>
<path d="M51.9971 62.8696L62.8674 71.5654L72.8675 55.5433" stroke="#212121" stroke-width="3" stroke-miterlimit="10"/>
</svg>
