<svg width="106" height="104" viewBox="0 0 106 104" fill="none" xmlns="http://www.w3.org/2000/svg">
<path fill-rule="evenodd" clip-rule="evenodd" d="M53.9824 2.00049C53.9824 1.17206 54.654 0.500488 55.4824 0.500488H55.4983C81.2404 0.500488 102.135 21.2465 102.382 46.9306C102.386 47.3309 102.23 47.7162 101.948 48.0006C101.666 48.285 101.283 48.4451 100.882 48.4451H55.4824C54.654 48.4451 53.9824 47.7735 53.9824 46.9451V2.00049ZM56.9824 3.52511V45.4451H99.342C98.3453 22.6 79.887 4.28628 56.9824 3.52511Z" fill="#212121"/>
<path d="M11.8502 30.8502C10.7811 32.3226 9.80128 33.864 8.9187 35.4665L6.62296 33.4255C7.55658 31.7873 8.5861 30.2109 9.70388 28.7039L11.8502 30.8502Z" fill="#212121"/>
<path d="M14.3613 27.7044C22.0963 18.8732 33.3165 13.1708 45.8753 12.7442V56.163C45.8753 56.2327 45.88 56.3013 45.8892 56.3684L45.8899 56.6122C45.891 57.0069 46.0476 57.3853 46.3258 57.6653L77.2429 88.7836C69.4093 96.0535 58.9205 100.501 47.3911 100.501C23.1494 100.501 3.5 80.8505 3.5 56.608C3.5 50.4208 4.78044 44.5325 7.09082 39.1937L4.73781 37.1017C2.01675 43.0414 0.5 49.6476 0.5 56.608C0.5 82.5073 21.4924 103.501 47.3911 103.501C60.2848 103.501 71.9645 98.2909 80.4394 89.8729C80.7217 89.5925 80.881 89.2115 80.8823 88.8136C80.8836 88.4158 80.7268 88.0337 80.4464 87.7514L48.8772 55.9768L48.8753 55.9618V11.2184C48.8753 10.8205 48.7172 10.4389 48.4357 10.1576C48.1543 9.87625 47.7726 9.71828 47.3747 9.71843C33.3831 9.72364 20.824 15.8565 12.2356 25.5787L14.3613 27.7044Z" fill="#212121"/>
<path fill-rule="evenodd" clip-rule="evenodd" d="M57.87 54.247C58.1515 53.9638 58.5343 53.8046 58.9336 53.8046H104.321C105.142 53.8046 105.81 54.4641 105.821 55.2847L105.827 55.7298L105.827 55.7497C105.827 68.7507 100.532 80.5161 91.9868 89.0081C91.7046 89.2885 91.3226 89.4453 90.9247 89.4441C90.5269 89.4428 90.1459 89.2836 89.8655 89.0014L57.8721 56.807C57.5949 56.5281 57.4383 56.1514 57.4361 55.7581L57.4336 55.313C57.4314 54.9138 57.5884 54.5301 57.87 54.247ZM62.0992 56.8046L90.9181 85.8047C98.0797 78.1878 102.55 68.0182 102.815 56.8046H62.0992Z" fill="#212121"/>
</svg>
